<svg width="172" height="172" viewBox="0 0 172 172" xmlns="http://www.w3.org/2000/svg" baseProfile="tiny" version="1.2" fill="currentColor">
  <path d="m119.70918,2.49037c39.23,10.03 51.62,50.21 52.61,86.05c0.64,23.35 -5.76,45.96 -22.02,62.6c-27.17,27.79 -64.84,24.63 -97.58,10.09c-30.31,-13.46 -51.31,-39.22 -52.64,-73.17c-0.75,-19.06 3.77,-37.81 16.03,-52.64c18.25,-22.08 49.46,-32.96 77.61,-35.17q13.19,-1.04 25.99,2.24zm-94.09,131.11c16.9,19.74 52.42,32.83 77.92,31.44c36.36,-1.99 60.15,-32.46 61.68,-67.26c2.14,-48.61 -18.29,-97.37 -76.51,-89.95c-36.49,4.66 -74.9,22.93 -80.75,63.69c-3.36,23.4 2.34,44.17 17.66,62.08z" fill-opacity="0.4" />
  <path d="m16.52918,74.86037c2.92,-27.17 23.9,-45.31 48.99,-53.3c23.03,-7.33 48.23,-9.63 67.59,6.57c19.08,15.96 24.02,44.33 23.09,67.71c-1.26,31.56 -22.92,58.17 -55.44,60.29c-14.67,0.95 -30.63,-3.5 -44.02,-9.94c-28.64,-13.78 -43.74,-38.5 -40.21,-71.33zm75.17,-51.62c-30.65,2.94 -64.33,18.23 -68.17,53.1c-3.33,30.15 12.03,53.13 38.99,64.75c23.53,10.14 49.54,13.1 69.25,-5.59c20.16,-19.11 20.48,-48.73 13.64,-73.87c-7,-25.76 -26.28,-41.02 -53.71,-38.39z" fill-opacity="0.698" />
  <path d="m58.45918,129.92037c-19.66,-11.1 -29.16,-31.69 -25.89,-53.92c4.3,-29.24 33.94,-42.56 60.12,-43.94c36.38,-1.93 48.88,31.81 47.49,61.79c-1.15,24.64 -18.25,45.1 -43.67,46.32c-12.72,0.61 -26.75,-3.88 -38.05,-10.25zm-17.42,-31.59c4.09,13.92 15.74,24.08 28.86,29.4c8.8,3.56 19.23,6.27 28.55,5.29c21.78,-2.3 34.7,-21.35 34.79,-42.42c0.12,-27.32 -10.38,-53.77 -42.95,-51.31c-15.6,1.18 -33.92,7.84 -43.53,20.59c-8.15,10.8 -9.41,25.9 -5.72,38.45z" />
</svg>
